<?xml version="1.0" standalone="no"?>
<!DOCTYPE svg PUBLIC "-//W3C//DTD SVG 20010904//EN"
 "http://www.w3.org/TR/2001/REC-SVG-20010904/DTD/svg10.dtd">
<svg version="1.0" xmlns="http://www.w3.org/2000/svg"
 width="726.000000pt" height="726.000000pt" viewBox="0 0 726.000000 726.000000"
 preserveAspectRatio="xMidYMid meet">
<metadata>
Created by potrace 1.14, written by Peter Selinger 2001-2017
</metadata>
<g transform="translate(0.000000,726.000000) scale(0.100000,-0.100000)"
fill="#000000" stroke="none">
<path d="M1270 7242 c-104 -39 -168 -95 -216 -189 l-29 -58 0 -3365 0 -3365
27 -56 c36 -72 101 -137 174 -174 l59 -30 2320 -3 c2290 -2 2321 -2 2385 18
109 33 188 111 229 225 l21 60 -2 3345 -3 3345 -27 55 c-49 98 -121 161 -219
191 -59 19 -125 19 -2368 18 -2128 -1 -2309 -2 -2351 -17z m4742 -75 c58 -29
108 -79 144 -147 18 -34 19 -131 21 -3365 3 -3704 9 -3387 -66 -3483 -27 -34
-59 -59 -98 -78 l-58 -29 -2321 -2 -2321 -2 -59 30 c-72 36 -127 95 -153 163
-19 50 -19 114 -18 3386 2 3280 2 3336 21 3375 43 88 105 144 188 170 36 11
434 13 2353 12 l2310 -2 57 -28z"/>
<path d="M1722 6902 c-49 -4 -40 10 -106 -163 l-37 -96 -91 -1 c-104 -3 -131
-16 -124 -61 2 -14 5 -29 5 -33 2 -12 45 -22 101 -23 62 -1 63 -5 31 -80 l-17
-40 -90 0 -89 -1 0 -59 0 -59 65 -1 c38 0 64 -4 63 -10 -4 -18 -93 -250 -110
-285 -10 -19 -19 -67 -21 -106 -4 -67 -2 -73 17 -79 23 -7 69 16 76 38 12 35
136 359 153 397 l19 45 261 0 262 1 51 -131 c28 -71 59 -148 69 -170 9 -22 25
-62 35 -90 11 -27 25 -60 33 -72 26 -41 102 -24 102 22 0 14 -36 116 -80 226
-44 110 -78 204 -76 208 3 4 31 7 63 6 99 -3 137 25 118 84 -8 27 -27 32 -134
33 -54 0 -94 5 -99 12 -5 6 -17 31 -26 55 -21 54 -13 61 56 55 42 -4 52 -1 74
21 18 19 23 31 18 48 -11 38 -22 42 -121 47 l-95 5 -45 110 c-24 61 -47 118
-50 128 -4 14 -17 17 -69 17 -68 0 -69 -1 -54 -28 9 -16 90 -219 90 -226 0 -2
-54 -4 -120 -4 -66 0 -120 4 -120 7 0 4 17 52 39 107 55 141 55 141 34 145
-10 2 -37 3 -61 1z m288 -418 c38 -89 58 -81 -180 -81 -235 0 -224 -5 -190 75
l20 47 167 -1 167 0 16 -40z"/>
<path d="M5216 6884 c-20 -19 -20 -24 -1 -50 10 -15 22 -20 40 -17 14 3 25 9
25 13 0 5 3 15 6 23 6 16 -20 47 -41 47 -7 0 -21 -7 -29 -16z"/>
<path d="M4862 6847 c-10 -11 3 -50 19 -59 11 -6 39 24 39 42 0 28 -40 39 -58
17z"/>
<path d="M5573 6844 c-9 -23 11 -50 33 -46 26 5 35 22 23 44 -12 22 -48 24
-56 2z"/>
<path d="M4949 6699 c-24 -24 -24 -44 2 -70 14 -14 27 -18 42 -13 29 9 38 23
35 58 -4 40 -50 54 -79 25z"/>
<path d="M5475 6700 c-24 -27 -21 -51 7 -73 25 -19 28 -19 52 -3 30 19 33 42
11 73 -17 25 -49 26 -70 3z"/>
<path d="M5212 6664 c-31 -21 -30 -76 1 -96 40 -27 82 -7 91 44 8 46 -52 80
-92 52z"/>
<path d="M4668 6567 c-36 -29 -22 -77 23 -77 20 0 44 44 34 61 -13 20 -42 28
-57 16z"/>
<path d="M5776 6558 c-13 -19 -14 -25 -2 -43 18 -26 40 -30 60 -10 27 27 18
57 -21 69 -16 5 -25 1 -37 -16z"/>
<path d="M5082 6503 c-74 -36 -69 -155 8 -182 66 -23 131 18 135 86 3 45 -7
67 -41 89 -34 23 -65 25 -102 7z"/>
<path d="M5322 6504 c-45 -18 -68 -72 -52 -120 29 -88 151 -92 186 -7 36 85
-47 164 -134 127z"/>
<path d="M4864 6462 c-39 -26 -36 -85 7 -102 24 -10 33 -10 54 4 25 17 29 25
25 61 -4 35 -56 58 -86 37z"/>
<path d="M5564 6462 c-25 -17 -33 -46 -19 -73 19 -35 53 -44 85 -20 29 21 34
51 13 81 -14 20 -57 27 -79 12z"/>
<path d="M2841 6374 c-20 -26 -19 -47 5 -71 22 -23 32 -14 36 32 5 72 -6 83
-41 39z"/>
<path d="M4957 6294 c-50 -27 -62 -100 -24 -147 31 -40 100 -48 139 -18 53 42
45 136 -13 166 -35 19 -66 18 -102 -1z"/>
<path d="M5428 6292 c-31 -19 -50 -64 -43 -102 2 -14 18 -37 35 -52 42 -39 92
-38 131 1 16 16 30 37 30 45 1 9 2 22 3 29 3 20 -22 65 -46 81 -29 21 -76 20
-110 -2z"/>
<path d="M2938 6262 c-90 -2 -98 -4 -98 -22 0 -16 7 -20 33 -20 44 -1 1282 -1
1430 0 110 0 117 1 117 20 0 11 -6 20 -12 20 -76 3 -1398 4 -1470 2z"/>
<path d="M4685 6244 c-25 -25 -15 -67 18 -78 35 -13 61 2 65 36 4 29 -21 58
-48 58 -10 0 -26 -7 -35 -16z"/>
<path d="M5734 6239 c-17 -19 -17 -23 -3 -47 17 -31 46 -39 72 -20 27 20 29
55 4 73 -29 20 -50 19 -73 -6z"/>
<path d="M5952 6239 c-31 -12 -27 -53 5 -57 28 -4 46 27 30 49 -9 12 -18 14
-35 8z"/>
<path d="M4504 6218 c-12 -40 45 -60 60 -21 4 9 1 22 -5 29 -17 21 -47 17 -55
-8z"/>
<path d="M5077 6092 c-28 -17 -52 -63 -49 -96 3 -50 40 -84 97 -91 47 -6 105
47 105 96 0 79 -88 130 -153 91z"/>
<path d="M5321 6095 c-74 -39 -72 -149 3 -180 38 -16 63 -14 99 10 29 19 38
37 42 83 2 26 -4 40 -30 66 -34 35 -75 42 -114 21z"/>
<path d="M4872 6060 c-43 -18 -48 -77 -8 -103 19 -13 27 -13 54 -1 18 7 32 17
33 21 0 4 2 16 4 27 3 18 -36 67 -52 65 -4 0 -18 -4 -31 -9z"/>
<path d="M5561 6051 c-40 -40 -15 -101 41 -101 32 0 51 23 51 60 0 53 -56 77
-92 41z"/>
<path d="M4656 5908 c-24 -33 5 -75 43 -63 26 8 34 45 14 67 -21 24 -39 23
-57 -4z"/>
<path d="M5788 5923 c-23 -6 -24 -59 -2 -71 40 -22 83 28 54 63 -13 15 -21 16
-52 8z"/>
<path d="M2866 5883 c-4 -18 -3 -40 2 -49 13 -24 19 -5 12 41 l-6 40 -8 -32z"/>
<path d="M5200 5843 c-10 -13 -17 -31 -15 -41 2 -9 4 -20 4 -24 2 -16 48 -37
69 -31 31 8 54 52 40 78 -24 44 -71 52 -98 18z"/>
<path d="M4969 5798 c-15 -5 -29 -18 -32 -30 -6 -21 7 -57 21 -59 4 0 15 -2
24 -4 45 -9 71 66 31 91 -12 7 -27 8 -44 2z"/>
<path d="M5475 5787 c-21 -29 -19 -50 6 -73 12 -10 22 -19 23 -18 0 0 11 6 23
13 36 19 46 46 25 70 -25 31 -59 34 -77 8z"/>
<path d="M4876 5617 c-24 -17 -17 -51 11 -55 32 -5 48 30 24 52 -15 13 -20 14
-35 3z"/>
<path d="M5580 5611 c-20 -39 18 -69 48 -39 16 16 15 23 -4 42 -20 21 -31 20
-44 -3z"/>
<path d="M5234 5600 c-30 -12 -36 -24 -24 -54 11 -30 40 -34 64 -10 20 20 20
27 -1 52 -14 15 -23 18 -39 12z"/>
<path d="M1787 5583 c-12 -14 -107 -243 -107 -259 0 -2 29 -4 65 -4 61 0 65 2
71 25 8 31 22 32 26 3 3 -21 9 -23 66 -26 34 -2 62 1 62 5 0 19 -92 238 -107
255 -20 23 -55 23 -76 1z"/>
<path d="M2120 5313 c-1 -5 -3 -179 -5 -388 -2 -209 -7 -591 -10 -850 -26
-2203 -26 -2215 -10 -2215 7 0 17 5 20 10 4 6 8 198 11 428 2 229 6 584 9 787
10 795 18 1584 19 1867 1 164 4 298 8 298 4 0 3 13 -2 29 -4 16 -6 32 -2 35 3
3 -4 6 -16 6 -12 0 -22 -3 -22 -7z"/>
<path d="M5280 5318 c-1 -2 -3 -174 -5 -383 -5 -433 -13 -1153 -20 -1740 -17
-1397 -17 -1323 5 -1335 18 -10 20 -8 21 17 0 15 2 195 4 398 4 363 10 927 20
1700 17 1350 17 1345 -5 1345 -11 0 -20 -1 -20 -2z"/>
<path d="M3735 4910 c-10 -11 -16 -20 -13 -20 11 0 -32 -173 -56 -225 -41 -90
-88 -130 -170 -146 -65 -12 -176 22 -263 81 -35 24 -52 30 -74 25 -16 -4 -30
-12 -31 -18 0 -7 -2 -143 -3 -303 l-1 -290 -60 -60 c-52 -52 -80 -97 -110
-179 -10 -28 -10 -26 -19 -70 -4 -22 -10 -49 -13 -60 -3 -11 -6 -113 -7 -226
-1 -206 -2 -207 -26 -230 -76 -73 -177 -249 -194 -337 -2 -9 -4 -17 -6 -17 -4
0 -10 -44 -15 -125 -15 -213 103 -364 315 -404 247 -47 498 92 638 354 58 108
72 166 78 320 5 138 14 269 21 291 2 10 6 30 8 45 21 157 107 364 190 456 32
36 110 94 149 112 86 40 105 43 243 45 l141 2 26 -73 c153 -431 175 -500 161
-497 -27 7 -216 -57 -307 -102 -87 -44 -95 -50 -142 -96 -36 -38 -60 -42 -75
-13 -12 23 1 57 32 78 21 16 24 50 4 58 -26 10 -129 -59 -165 -111 -17 -26
-19 -36 -11 -65 13 -44 17 -51 60 -80 31 -22 46 -25 125 -25 83 0 159 7 243
22 23 4 32 1 33 -8 0 -8 1 -72 2 -142 2 -148 0 -152 -88 -173 -5 -1 -46 -14
-90 -27 -67 -21 -111 -31 -180 -42 -5 -1 -24 -3 -41 -3 -30 -2 -31 -3 -31 -53
l-1 -51 57 6 c163 16 455 108 469 147 4 11 7 100 7 199 l-1 181 40 18 c23 10
55 31 71 46 17 15 50 36 73 47 24 11 52 28 63 39 18 18 17 22 -42 191 -33 95
-62 178 -63 183 -2 6 -6 17 -9 25 -4 8 -25 69 -47 135 -23 66 -45 129 -50 140
-5 11 -16 41 -26 67 -9 26 -20 46 -23 43 -4 -2 -7 129 -6 291 0 162 -3 304 -7
314 -13 36 -53 35 -110 -2 -183 -119 -336 -126 -444 -21 -53 51 -106 155 -129
253 -23 98 -58 126 -100 80z m75 -296 c107 -203 317 -265 545 -160 32 14 60
26 64 26 3 0 6 -100 5 -222 l-1 -223 -564 -1 c-310 -1 -580 0 -599 3 l-35 5 0
219 c0 244 -5 229 67 193 15 -8 53 -20 85 -27 162 -37 300 28 370 174 15 32
30 59 33 59 3 0 16 -21 30 -46z m78 -739 c-32 -30 -70 -74 -85 -97 -15 -24
-30 -45 -33 -48 -22 -22 -84 -179 -109 -277 -38 -148 -49 -235 -56 -448 -2
-66 -7 -131 -9 -144 -15 -68 -58 -165 -100 -226 -35 -50 -140 -149 -187 -177
-183 -108 -433 -65 -508 88 -38 74 -36 202 3 314 31 91 99 202 156 255 57 52
67 78 59 137 -4 29 -6 123 -4 208 3 142 7 184 21 232 3 9 7 26 9 37 7 35 53
120 80 147 54 54 52 54 450 54 l369 0 -56 -55z"/>
<path d="M4224 3688 c-40 -19 -61 -85 -42 -129 26 -58 116 -76 159 -32 82 81
-14 212 -117 161z"/>
<path d="M5700 1777 c-18 -9 -38 -48 -82 -162 -33 -82 -65 -163 -72 -180 -7
-16 -23 -55 -35 -86 l-22 -55 -260 0 -261 1 -18 40 c-10 22 -32 78 -50 125
-18 47 -38 99 -45 115 -7 17 -24 62 -39 100 -34 91 -37 95 -74 101 -23 4 -34
0 -46 -18 -20 -28 -20 -48 -2 -90 21 -48 135 -343 138 -359 2 -10 -13 -14 -62
-15 -90 -3 -87 -2 -104 -20 -22 -21 -20 -57 4 -79 17 -15 38 -19 114 -19 52
-1 97 -4 101 -7 4 -5 45 -108 45 -115 0 0 -26 0 -57 1 -89 2 -125 -23 -108
-75 10 -32 41 -42 131 -42 l84 -1 34 -91 c20 -50 64 -167 100 -260 36 -93 71
-173 78 -177 35 -23 82 0 93 44 4 15 11 30 16 33 5 3 9 12 9 21 0 8 7 29 15
46 7 18 32 79 55 137 23 58 48 119 55 137 8 17 15 35 15 40 0 6 7 24 15 40 13
26 21 31 53 31 117 1 140 3 156 15 26 19 24 67 -3 88 -16 13 -37 17 -77 15
-58 -2 -77 11 -56 37 5 6 15 28 21 48 l11 36 100 0 c108 0 140 13 140 57 0 47
-34 63 -127 61 -35 0 -63 2 -63 6 0 4 36 98 80 208 44 110 80 208 80 218 -1
41 -44 68 -80 50z m-260 -607 c0 -8 -40 -102 -47 -109 -2 -3 -77 -5 -168 -5
l-164 -1 -24 57 c-17 39 -21 58 -14 61 21 7 417 4 417 -3z m-98 -250 c-5 -24
-104 -274 -112 -283 -4 -5 -13 8 -20 29 -7 20 -32 87 -56 147 -24 61 -44 114
-44 118 0 4 53 6 118 5 98 -1 117 -3 114 -16z"/>
<path d="M2016 1684 c-9 -8 -16 -19 -16 -23 0 -12 24 -38 42 -44 16 -6 48 21
48 41 0 15 -29 42 -45 42 -7 0 -21 -7 -29 -16z"/>
<path d="M1661 1638 c-11 -31 11 -53 39 -38 24 13 27 45 4 54 -26 10 -34 7
-43 -16z"/>
<path d="M2375 1640 c-4 -12 -2 -27 5 -34 14 -18 47 -9 53 14 10 38 -46 57
-58 20z"/>
<path d="M1749 1499 c-24 -24 -24 -44 2 -70 14 -14 27 -18 42 -13 29 9 38 23
35 58 -4 40 -50 54 -79 25z"/>
<path d="M2290 1512 c-37 -12 -41 -65 -6 -87 31 -20 63 -6 72 30 10 39 -27 70
-66 57z"/>
<path d="M2019 1466 c-65 -32 -20 -130 49 -105 32 12 47 55 28 84 -18 28 -48
36 -77 21z"/>
<path d="M2576 1358 c-27 -37 12 -80 52 -59 19 10 25 52 10 67 -16 15 -49 11
-62 -8z"/>
<path d="M1453 1358 c-22 -28 1 -68 40 -68 20 0 40 42 31 65 -7 18 -58 20 -71
3z"/>
<path d="M1878 1301 c-70 -40 -63 -153 10 -179 70 -24 133 16 138 88 2 33 -3
47 -24 70 -33 35 -85 44 -124 21z"/>
<path d="M2111 1299 c-78 -47 -52 -167 41 -184 65 -13 130 65 108 130 -20 62
-93 88 -149 54z"/>
<path d="M1656 1254 c-34 -34 -11 -104 34 -104 23 0 57 29 64 56 14 46 -63 84
-98 48z"/>
<path d="M2364 1262 c-25 -17 -33 -46 -18 -73 18 -35 48 -45 79 -25 32 21 40
52 21 81 -16 25 -58 34 -82 17z"/>
<path d="M1739 1077 c-63 -62 -18 -167 71 -167 101 0 139 139 51 185 -44 22
-89 16 -122 -18z"/>
<path d="M2228 1092 c-31 -19 -50 -64 -43 -102 2 -14 19 -38 36 -54 27 -24 38
-27 71 -23 73 10 113 78 82 139 -29 57 -92 74 -146 40z"/>
<path d="M2913 1062 c-24 -2 -31 -8 -30 -23 1 -22 -17 -21 322 -19 121 1 227
1 235 1 8 0 116 0 240 0 124 0 231 0 238 0 6 0 78 0 160 0 188 0 224 -1 234
-7 4 -3 8 -2 8 3 0 4 34 7 76 5 74 -4 75 -3 64 17 -6 12 -16 21 -23 21 -7 1
-102 0 -212 0 -110 -1 -207 -1 -215 -1 -8 0 -116 0 -240 0 -124 0 -232 0 -240
0 -8 0 -123 0 -255 0 -249 0 -315 0 -324 4 -3 1 -20 1 -38 -1z"/>
<path d="M1486 1044 c-45 -45 7 -104 65 -74 38 21 14 90 -31 90 -10 0 -26 -7
-34 -16z"/>
<path d="M2532 1036 c-6 -13 -8 -33 -5 -45 11 -42 84 -36 96 8 13 53 -68 86
-91 37z"/>
<path d="M2752 1039 c-31 -12 -27 -53 5 -57 28 -4 46 27 30 49 -9 12 -18 14
-35 8z"/>
<path d="M1313 1033 c-16 -6 -17 -35 -2 -50 15 -15 46 -5 52 17 8 30 -18 47
-50 33z"/>
<path d="M1895 900 c-28 -11 -55 -43 -64 -76 -17 -62 45 -127 113 -118 38 4
86 54 86 89 0 75 -70 129 -135 105z"/>
<path d="M2112 890 c-50 -30 -60 -92 -24 -147 33 -51 133 -48 161 6 53 98 -44
197 -137 141z"/>
<path d="M1671 857 c-49 -25 -43 -93 10 -108 58 -15 97 54 54 97 -28 28 -31
28 -64 11z"/>
<path d="M2373 860 c-26 -10 -41 -56 -26 -78 28 -45 90 -39 107 11 8 22 6 31
-14 52 -25 27 -33 29 -67 15z"/>
<path d="M1457 709 c-25 -35 -1 -74 38 -62 47 14 46 62 -2 77 -15 5 -25 1 -36
-15z"/>
<path d="M2578 713 c-24 -28 -6 -63 31 -63 24 0 32 5 37 25 12 47 -36 74 -68
38z"/>
<path d="M2022 659 c-47 -17 -48 -84 -2 -109 23 -12 64 1 78 26 24 43 -29 100
-76 83z"/>
<path d="M1763 597 c-25 -11 -36 -43 -22 -69 10 -18 15 -20 44 -20 31 0 36 2
44 25 17 46 -22 84 -66 64z"/>
<path d="M2275 587 c-19 -28 -19 -51 1 -68 36 -29 84 -9 84 36 0 45 -60 68
-85 32z"/>
<path d="M1678 423 c-11 -3 -18 -14 -18 -28 0 -29 36 -44 57 -23 12 13 12 17
-4 35 -10 11 -26 18 -35 16z"/>
<path d="M2384 416 c-20 -15 -14 -43 12 -53 20 -8 47 19 39 39 -9 23 -30 29
-51 14z"/>
<path d="M2021 394 c-33 -23 -17 -74 22 -74 29 0 51 34 38 59 -15 27 -35 32
-60 15z"/>
</g>
</svg>
